<svg xmlns="http://www.w3.org/2000/svg" xmlns:xlink="http://www.w3.org/1999/xlink" width="500" zoomAndPan="magnify" viewBox="0 0 375 374.999991" height="500" preserveAspectRatio="xMidYMid meet" version="1.0"><path fill="#3a9498" d="M 347.785156 33.4375 L 348.902344 33.4375 L 347.226562 39.585938 L 342.757812 49.085938 L 336.609375 58.027344 L 329.902344 65.292969 L 325.433594 69.761719 L 316.492188 76.46875 L 303.078125 83.734375 L 290.226562 91 L 275.136719 99.378906 L 258.929688 108.320312 L 244.402344 116.144531 L 234.34375 121.734375 L 231.546875 123.410156 L 234.902344 122.292969 L 250.546875 115.027344 L 259.488281 110.558594 L 279.050781 101.058594 L 290.785156 95.46875 L 301.402344 89.878906 L 315.933594 82.617188 L 326.550781 77.027344 L 333.257812 73.675781 L 334.933594 74.234375 L 328.785156 85.96875 L 324.316406 92.117188 L 318.167969 98.820312 L 313.695312 103.292969 L 305.875 109.441406 L 297.492188 114.46875 L 289.109375 117.824219 L 268.988281 124.527344 L 241.605469 133.46875 L 231.546875 136.824219 L 236.578125 136.265625 L 266.753906 128.441406 L 304.195312 117.824219 L 306.433594 118.382812 L 300.285156 125.085938 L 294.695312 130.675781 L 286.3125 136.265625 L 277.371094 140.175781 L 268.988281 141.851562 L 240.488281 145.765625 L 219.8125 148.558594 L 228.753906 148.558594 L 268.429688 145.765625 L 282.402344 144.648438 L 281.285156 146.882812 L 276.253906 151.351562 L 268.429688 156.382812 L 262.285156 158.617188 L 259.488281 159.175781 L 247.195312 159.175781 L 213.664062 156.941406 L 213.664062 157.5 L 251.664062 163.089844 L 261.167969 164.207031 L 261.167969 165.882812 L 252.785156 171.472656 L 247.753906 173.707031 L 240.488281 173.707031 L 217.019531 167 L 208.636719 164.207031 L 206.957031 164.207031 L 225.402344 172.03125 L 242.722656 178.734375 L 242.722656 180.414062 L 237.136719 184.324219 L 232.105469 186.558594 L 227.636719 186 L 221.488281 182.648438 L 207.519531 173.707031 L 201.371094 169.234375 L 203.605469 172.03125 L 210.871094 178.175781 L 218.695312 184.324219 L 224.839844 189.355469 L 223.164062 191.03125 L 215.898438 193.265625 L 212.546875 193.265625 L 206.957031 187.675781 L 200.8125 179.851562 L 196.339844 173.707031 L 196.898438 175.941406 L 204.164062 188.792969 L 207.519531 194.941406 L 204.722656 195.5 L 200.253906 195.5 L 194.105469 194.382812 L 190.753906 190.472656 L 185.164062 182.648438 L 180.132812 177.058594 L 176.222656 173.148438 L 170.074219 169.234375 L 179.015625 178.175781 L 186.839844 189.914062 L 190.195312 194.941406 L 190.195312 196.058594 L 196.898438 197.734375 L 206.398438 198.296875 L 209.195312 202.765625 L 214.222656 213.941406 L 219.253906 227.914062 L 223.164062 242.441406 L 225.402344 254.179688 L 227.078125 266.472656 L 228.195312 286.589844 L 228.195312 305.03125 L 227.636719 319.5625 L 225.402344 339.679688 L 222.605469 353.09375 L 219.8125 361.476562 L 218.695312 362.035156 L 219.253906 340.238281 L 218.695312 320.121094 L 217.019531 298.886719 L 215.339844 284.914062 L 213.664062 280.445312 L 208.636719 270.945312 L 201.929688 262.003906 L 195.78125 254.738281 L 192.988281 252.503906 L 186.28125 249.148438 L 181.8125 246.914062 L 180.695312 246.914062 L 179.574219 249.148438 L 179.574219 254.179688 L 181.253906 256.972656 L 183.488281 259.207031 L 180.132812 258.648438 L 176.78125 255.296875 L 177.339844 259.207031 L 177.898438 260.886719 L 175.105469 259.765625 L 171.753906 255.855469 L 170.632812 253.0625 L 171.191406 248.03125 L 175.105469 243.003906 L 178.457031 240.207031 L 181.8125 238.53125 L 176.78125 239.648438 L 171.191406 243.003906 L 157.222656 236.296875 L 145.488281 228.472656 L 140.457031 224.558594 L 133.191406 217.296875 L 128.164062 211.148438 L 123.691406 205 L 120.339844 197.734375 L 116.984375 184.882812 L 113.632812 165.882812 L 110.28125 156.382812 L 105.25 148 L 98.542969 140.734375 L 92.957031 135.144531 L 87.925781 131.234375 L 78.984375 127.882812 L 66.691406 125.085938 L 48.25 122.851562 L 20.308594 121.175781 L 15.277344 120.617188 L 16.953125 119.5 L 25.335938 117.824219 L 81.21875 117.261719 L 86.808594 116.144531 L 92.957031 112.792969 L 106.925781 106.085938 L 112.515625 104.96875 L 125.367188 104.96875 L 132.074219 106.644531 L 137.105469 108.882812 L 142.132812 112.792969 L 147.164062 118.382812 L 152.75 126.765625 L 157.78125 135.144531 L 163.929688 141.851562 L 168.398438 145.207031 L 173.429688 147.441406 L 172.3125 150.234375 L 168.398438 154.707031 L 163.371094 161.96875 L 165.605469 160.851562 L 171.753906 154.707031 L 175.664062 150.234375 L 189.074219 136.824219 L 196.898438 130.675781 L 205.28125 125.085938 L 220.929688 115.585938 L 235.460938 106.644531 L 243.285156 101.617188 L 252.785156 95.46875 L 265.078125 87.644531 L 277.929688 79.261719 L 289.109375 71.996094 L 301.960938 63.613281 L 326.550781 47.410156 L 344.992188 35.113281 Z M 347.785156 33.4375 " fill-opacity="1" fill-rule="nonzero"/><path fill="#65b587" d="M 112.515625 104.96875 L 125.367188 104.96875 L 132.074219 106.644531 L 137.105469 108.882812 L 142.132812 112.792969 L 147.164062 118.382812 L 152.75 126.765625 L 157.78125 135.144531 L 162.8125 140.734375 L 160.574219 142.410156 L 154.988281 145.765625 L 153.871094 145.765625 L 153.871094 146.882812 L 149.398438 150.234375 L 146.605469 153.027344 L 145.488281 156.382812 L 144.367188 155.824219 L 140.457031 165.882812 L 138.222656 173.707031 L 136.546875 191.589844 L 136.546875 201.089844 L 140.457031 205 L 145.488281 208.914062 L 154.988281 216.179688 L 165.605469 223.441406 L 166.164062 225.121094 L 162.8125 225.679688 L 153.308594 226.238281 L 148.839844 227.355469 L 146.605469 227.355469 L 146.046875 229.03125 L 140.457031 224.558594 L 133.191406 217.296875 L 128.164062 211.148438 L 123.691406 205 L 120.339844 197.734375 L 116.984375 184.882812 L 113.632812 165.882812 L 110.28125 156.382812 L 105.25 148 L 98.542969 140.734375 L 92.957031 135.144531 L 87.925781 131.234375 L 78.984375 127.882812 L 66.691406 125.085938 L 48.25 122.851562 L 20.308594 121.175781 L 15.277344 120.617188 L 16.953125 119.5 L 25.335938 117.824219 L 81.21875 117.261719 L 86.808594 116.144531 L 92.957031 112.792969 L 106.925781 106.085938 Z M 112.515625 104.96875 " fill-opacity="1" fill-rule="nonzero"/><path fill="#72bd8e" d="M 347.785156 33.4375 L 348.902344 33.4375 L 347.226562 39.585938 L 342.757812 49.085938 L 336.609375 58.027344 L 329.902344 65.292969 L 325.433594 69.761719 L 316.492188 76.46875 L 303.078125 83.734375 L 290.226562 91 L 275.136719 99.378906 L 258.929688 108.320312 L 244.402344 116.144531 L 234.34375 121.734375 L 231.546875 123.410156 L 234.902344 122.292969 L 250.546875 115.027344 L 259.488281 110.558594 L 279.050781 101.058594 L 290.785156 95.46875 L 301.402344 89.878906 L 315.933594 82.617188 L 326.550781 77.027344 L 333.257812 73.675781 L 334.933594 74.234375 L 328.785156 85.96875 L 324.316406 92.117188 L 318.167969 98.820312 L 313.695312 103.292969 L 305.875 109.441406 L 297.492188 114.46875 L 289.109375 117.824219 L 268.988281 124.527344 L 241.605469 133.46875 L 231.546875 136.824219 L 231.546875 137.941406 L 218.695312 141.292969 L 215.339844 141.851562 L 214.78125 140.175781 L 215.898438 140.175781 L 216.460938 136.824219 L 217.578125 136.824219 L 218.695312 132.910156 L 220.371094 131.792969 L 219.8125 130.675781 L 221.488281 129.558594 L 221.488281 127.882812 L 224.28125 126.203125 L 223.722656 123.96875 L 223.722656 122.292969 L 227.636719 118.941406 L 228.195312 117.261719 L 228.195312 116.144531 L 229.3125 116.144531 L 229.871094 114.46875 L 232.105469 113.351562 L 238.8125 106.644531 L 244.960938 101.617188 L 247.753906 99.378906 L 249.988281 97.144531 L 263.402344 88.761719 L 277.929688 79.261719 L 289.109375 71.996094 L 301.960938 63.613281 L 326.550781 47.410156 L 344.992188 35.113281 Z M 222.046875 123.410156 L 223.164062 123.96875 L 222.046875 124.527344 Z M 222.046875 123.410156 " fill-opacity="1" fill-rule="nonzero"/><path fill="#45a297" d="M 225.960938 5.496094 L 227.078125 5.496094 L 228.195312 10.527344 L 228.195312 21.703125 L 225.960938 32.878906 L 223.164062 39.585938 L 214.78125 55.792969 L 207.519531 69.761719 L 201.929688 80.378906 L 195.222656 93.234375 L 192.988281 97.703125 L 198.578125 88.761719 L 205.28125 77.585938 L 214.222656 62.496094 L 222.605469 47.96875 L 230.429688 34.554688 L 232.664062 31.203125 L 233.78125 32.878906 L 233.78125 46.851562 L 231.546875 56.351562 L 228.195312 64.734375 L 220.371094 75.910156 L 213.664062 85.410156 L 206.398438 96.027344 L 199.695312 104.96875 L 195.222656 111.675781 L 198.015625 108.882812 L 202.488281 103.292969 L 209.753906 94.351562 L 214.222656 88.761719 L 222.046875 78.703125 L 228.195312 70.878906 L 233.222656 64.175781 L 234.34375 63.613281 L 234.34375 68.085938 L 232.664062 77.027344 L 229.871094 84.851562 L 225.960938 91.558594 L 220.929688 97.144531 L 206.957031 111.117188 L 203.046875 115.585938 L 198.578125 119.5 L 197.457031 121.734375 L 204.722656 115.027344 L 210.871094 110 L 218.695312 102.734375 L 223.164062 98.820312 L 228.753906 93.792969 L 230.988281 92.675781 L 229.871094 100.5 L 227.636719 107.761719 L 222.046875 111.675781 L 209.195312 119.5 L 198.578125 126.203125 L 189.636719 132.910156 L 184.046875 137.941406 L 176.78125 145.207031 L 172.3125 144.648438 L 167.28125 141.292969 L 167.839844 136.265625 L 172.3125 120.058594 L 175.664062 111.117188 L 186.28125 89.320312 L 194.105469 72.554688 L 204.722656 50.761719 L 210.871094 37.910156 L 218.695312 21.703125 L 224.839844 8.289062 Z M 225.960938 5.496094 " fill-opacity="1" fill-rule="nonzero"/><path fill="#58b291" d="M 333.257812 73.675781 L 334.933594 74.234375 L 328.785156 85.96875 L 324.316406 92.117188 L 318.167969 98.820312 L 313.695312 103.292969 L 305.875 109.441406 L 297.492188 114.46875 L 289.109375 117.824219 L 268.988281 124.527344 L 241.605469 133.46875 L 231.546875 136.824219 L 231.546875 137.941406 L 218.695312 141.292969 L 215.339844 141.851562 L 214.78125 140.175781 L 215.898438 140.175781 L 216.460938 136.824219 L 217.578125 136.824219 L 218.695312 132.910156 L 220.371094 131.792969 L 219.8125 130.675781 L 221.488281 129.558594 L 221.488281 127.882812 L 226.519531 126.203125 L 238.8125 120.617188 L 247.753906 116.144531 L 261.726562 109.441406 L 277.929688 101.617188 L 290.785156 95.46875 L 301.402344 89.878906 L 315.933594 82.617188 L 326.550781 77.027344 Z M 333.257812 73.675781 " fill-opacity="1" fill-rule="nonzero"/><path fill="#4996ab" d="M 189.636719 200.53125 L 201.371094 202.207031 L 209.753906 203.882812 L 215.339844 216.738281 L 220.929688 233.5 L 224.839844 250.265625 L 227.078125 266.472656 L 228.195312 286.589844 L 228.195312 305.03125 L 227.636719 319.5625 L 225.402344 339.679688 L 222.605469 353.09375 L 219.8125 361.476562 L 218.695312 362.035156 L 219.253906 340.238281 L 218.695312 320.121094 L 217.019531 298.886719 L 215.339844 284.914062 L 213.105469 270.386719 L 210.871094 256.972656 L 209.195312 247.472656 L 208.078125 243.5625 L 204.722656 232.382812 L 200.8125 223.441406 L 196.339844 213.941406 L 190.753906 203.882812 Z M 189.636719 200.53125 " fill-opacity="1" fill-rule="nonzero"/><path fill="#337aa7" d="M 233.78125 63.613281 L 234.34375 63.613281 L 234.34375 68.085938 L 232.664062 77.027344 L 229.871094 84.851562 L 225.960938 91.558594 L 220.929688 97.144531 L 206.957031 111.117188 L 203.046875 115.585938 L 198.578125 119.5 L 197.457031 121.734375 L 204.722656 115.027344 L 210.871094 110 L 218.695312 102.734375 L 223.164062 98.820312 L 228.753906 93.792969 L 230.988281 92.675781 L 229.871094 100.5 L 227.636719 107.761719 L 222.046875 111.675781 L 209.195312 119.5 L 198.578125 126.203125 L 189.636719 132.910156 L 184.046875 137.941406 L 176.78125 145.207031 L 172.3125 144.648438 L 167.28125 141.292969 L 167.839844 136.265625 L 172.3125 120.058594 L 175.664062 111.117188 L 186.28125 89.320312 L 187.957031 85.410156 L 189.074219 85.410156 L 189.636719 83.734375 L 190.195312 83.734375 L 189.636719 91.558594 L 189.636719 104.96875 L 190.753906 110.558594 L 191.3125 113.910156 L 192.429688 116.144531 L 198.015625 108.882812 L 202.488281 103.292969 L 209.753906 94.351562 L 214.222656 88.761719 L 222.046875 78.703125 L 228.195312 70.878906 L 233.222656 64.175781 Z M 233.78125 63.613281 " fill-opacity="1" fill-rule="nonzero"/><path fill="#42a393" d="M 304.195312 117.824219 L 306.433594 118.382812 L 300.285156 125.085938 L 294.695312 130.675781 L 286.3125 136.265625 L 277.371094 140.175781 L 268.988281 141.851562 L 240.488281 145.765625 L 219.8125 148.558594 L 228.753906 148.558594 L 268.429688 145.765625 L 282.402344 144.648438 L 281.285156 146.882812 L 276.253906 151.351562 L 268.429688 156.382812 L 262.285156 158.617188 L 259.488281 159.175781 L 247.195312 159.175781 L 214.222656 156.941406 L 214.222656 155.265625 L 215.898438 153.027344 L 217.019531 153.027344 L 217.019531 151.910156 L 218.136719 151.910156 L 218.695312 150.234375 L 210.871094 149.675781 L 211.429688 146.882812 L 213.664062 142.96875 L 213.664062 141.292969 L 216.460938 141.851562 L 217.019531 140.734375 L 222.605469 139.617188 L 258.371094 130.675781 L 294.695312 120.617188 Z M 304.195312 117.824219 " fill-opacity="1" fill-rule="nonzero"/><path fill="#4082a2" d="M 166.164062 224.558594 L 182.371094 227.355469 L 198.578125 230.707031 L 203.046875 231.824219 L 203.046875 228.472656 L 204.164062 229.589844 L 206.398438 235.738281 L 208.636719 243.5625 L 209.753906 247.472656 L 212.546875 262.5625 L 214.78125 277.089844 L 214.78125 281.003906 L 213.105469 279.328125 L 207.519531 269.265625 L 201.929688 262.003906 L 195.78125 254.738281 L 192.988281 252.503906 L 186.28125 249.148438 L 181.8125 246.914062 L 180.695312 246.914062 L 179.574219 249.148438 L 179.574219 254.179688 L 181.253906 256.972656 L 183.488281 259.207031 L 180.132812 258.648438 L 176.78125 255.296875 L 177.339844 259.207031 L 177.898438 260.886719 L 175.105469 259.765625 L 171.753906 255.855469 L 170.632812 253.0625 L 171.191406 248.03125 L 175.105469 243.003906 L 178.457031 240.207031 L 181.8125 238.53125 L 176.78125 239.648438 L 171.191406 243.003906 L 157.222656 236.296875 L 147.164062 229.589844 L 146.605469 227.355469 L 153.871094 225.679688 L 162.8125 225.121094 Z M 166.164062 224.558594 " fill-opacity="1" fill-rule="nonzero"/><path fill="#a8ab5e" d="M 142.691406 156.941406 L 143.25 158.617188 L 139.898438 168.117188 L 138.222656 173.707031 L 136.546875 191.589844 L 136.546875 201.089844 L 140.457031 205 L 145.488281 208.914062 L 154.988281 216.179688 L 165.605469 223.441406 L 166.164062 225.121094 L 162.8125 225.679688 L 153.308594 226.238281 L 148.839844 227.355469 L 146.605469 227.355469 L 146.046875 229.03125 L 140.457031 224.558594 L 133.191406 217.296875 L 128.164062 211.148438 L 123.691406 205 L 120.339844 197.734375 L 116.984375 184.882812 L 116.425781 179.851562 L 128.722656 172.03125 L 132.632812 168.675781 L 137.664062 162.53125 Z M 142.691406 156.941406 " fill-opacity="1" fill-rule="nonzero"/><path fill="#62b495" d="M 225.960938 5.496094 L 227.078125 5.496094 L 228.195312 10.527344 L 228.195312 21.703125 L 225.960938 32.878906 L 223.164062 39.585938 L 214.78125 55.792969 L 207.519531 69.761719 L 201.929688 80.378906 L 195.222656 93.234375 L 192.988281 94.351562 L 192.429688 85.410156 L 191.871094 77.027344 L 198.578125 63.613281 L 205.839844 47.96875 L 211.988281 35.671875 L 218.136719 22.820312 L 223.164062 12.203125 Z M 225.960938 5.496094 " fill-opacity="1" fill-rule="nonzero"/><path fill="#749a5a" d="M 87.925781 130.675781 L 94.632812 132.351562 L 94.632812 135.144531 L 97.425781 136.265625 L 102.457031 139.617188 L 102.457031 140.734375 L 105.25 140.734375 L 107.484375 141.851562 L 107.484375 142.96875 L 112.515625 144.648438 L 115.867188 146.324219 L 120.339844 148 L 135.988281 151.910156 L 144.929688 153.589844 L 145.488281 156.382812 L 144.367188 155.824219 L 143.25 157.5 L 139.898438 160.292969 L 134.867188 166.441406 L 130.398438 171.472656 L 120.898438 177.617188 L 116.425781 179.851562 L 113.632812 165.882812 L 110.28125 156.382812 L 105.25 148 L 98.542969 140.734375 L 92.957031 135.144531 L 87.925781 131.234375 Z M 87.925781 130.675781 " fill-opacity="1" fill-rule="nonzero"/><path fill="#6ac19c" d="M 112.515625 104.96875 L 125.367188 104.96875 L 132.074219 106.644531 L 137.105469 108.882812 L 142.132812 112.792969 L 147.164062 118.382812 L 152.75 126.765625 L 157.78125 135.144531 L 162.8125 140.734375 L 160.574219 142.410156 L 154.988281 145.765625 L 153.871094 145.765625 L 153.871094 146.882812 L 149.398438 150.234375 L 145.488281 153.589844 L 143.25 130.117188 L 141.574219 126.203125 L 137.105469 120.058594 L 131.515625 112.792969 L 130.398438 111.117188 L 124.25 111.117188 L 92.398438 115.585938 L 88.484375 116.144531 L 90.160156 114.46875 L 103.015625 107.761719 L 106.925781 106.085938 Z M 112.515625 104.96875 " fill-opacity="1" fill-rule="nonzero"/><path fill="#4687b4" d="M 202.488281 268.707031 L 204.164062 269.265625 L 208.078125 274.855469 L 206.398438 291.621094 L 203.046875 318.445312 L 200.8125 326.828125 L 196.339844 335.769531 L 194.105469 339.121094 L 192.988281 338.003906 L 192.429688 333.535156 L 192.429688 313.414062 L 195.222656 299.445312 L 199.136719 283.238281 Z M 202.488281 268.707031 " fill-opacity="1" fill-rule="nonzero"/><path fill="#4686b1" d="M 194.664062 258.089844 L 197.457031 260.886719 L 201.371094 265.355469 L 200.253906 270.945312 L 191.3125 301.679688 L 189.074219 307.828125 L 183.488281 317.328125 L 181.253906 319.003906 L 180.695312 316.210938 L 180.695312 301.679688 L 182.929688 290.503906 L 186.28125 279.328125 L 191.871094 264.238281 Z M 194.664062 258.089844 " fill-opacity="1" fill-rule="nonzero"/><path fill="#449ea8" d="M 233.78125 63.613281 L 234.34375 63.613281 L 234.34375 68.085938 L 232.664062 77.027344 L 229.871094 84.851562 L 225.960938 91.558594 L 220.929688 97.144531 L 206.957031 111.117188 L 203.046875 115.585938 L 198.578125 119.5 L 196.339844 120.058594 L 196.339844 111.117188 L 201.929688 103.851562 L 209.753906 94.351562 L 214.222656 88.761719 L 222.046875 78.703125 L 228.195312 70.878906 L 233.222656 64.175781 Z M 233.78125 63.613281 " fill-opacity="1" fill-rule="nonzero"/><path fill="#358567" d="M 144.367188 154.707031 L 144.929688 154.707031 L 144.367188 169.792969 L 144.367188 187.117188 L 148.839844 197.175781 L 153.871094 206.117188 L 161.691406 217.855469 L 164.488281 221.765625 L 166.722656 222.324219 L 166.164062 224.558594 L 157.78125 218.414062 L 150.515625 213.382812 L 144.367188 208.355469 L 138.78125 203.882812 L 135.988281 201.089844 L 135.988281 191.589844 L 137.664062 173.707031 L 141.015625 163.089844 Z M 144.367188 154.707031 " fill-opacity="1" fill-rule="nonzero"/><path fill="#386ead" d="M 209.195312 279.328125 L 210.871094 281.003906 L 213.105469 286.589844 L 214.78125 302.238281 L 215.339844 310.621094 L 215.898438 330.179688 L 214.222656 340.796875 L 210.871094 353.652344 L 209.753906 356.445312 L 208.636719 355.886719 L 206.957031 343.59375 L 206.398438 336.886719 L 206.398438 322.914062 L 208.636719 286.03125 Z M 209.195312 279.328125 " fill-opacity="1" fill-rule="nonzero"/><path fill="#3e9ba2" d="M 213.105469 157.5 L 232.105469 160.292969 L 256.136719 163.648438 L 261.167969 164.207031 L 261.167969 165.882812 L 252.785156 171.472656 L 247.753906 173.707031 L 240.488281 173.707031 L 217.019531 167 L 210.3125 164.765625 L 208.636719 162.53125 L 212.546875 158.617188 Z M 213.105469 157.5 " fill-opacity="1" fill-rule="nonzero"/><path fill="#a5b86e" d="M 116.425781 151.351562 L 122.574219 152.46875 L 130.957031 154.148438 L 143.25 154.707031 L 142.132812 156.941406 L 135.988281 161.96875 L 128.722656 167.558594 L 124.25 170.351562 L 116.984375 172.589844 L 115.308594 172.589844 L 113.074219 163.648438 L 112.515625 161.410156 Z M 116.425781 151.351562 " fill-opacity="1" fill-rule="nonzero"/><path fill="#decf78" d="M 128.164062 172.589844 L 130.398438 173.148438 L 133.75 190.472656 L 135.425781 197.734375 L 134.867188 199.972656 L 130.398438 196.058594 L 124.808594 189.914062 L 123.691406 189.355469 L 129.28125 197.175781 L 131.515625 201.648438 L 130.957031 202.207031 L 123.132812 203.324219 L 120.339844 197.734375 L 116.984375 184.882812 L 116.425781 179.851562 Z M 128.164062 172.589844 " fill-opacity="1" fill-rule="nonzero"/><path fill="#d1cb7e" d="M 135.988281 201.648438 L 138.222656 202.765625 L 142.691406 206.675781 L 150.515625 212.824219 L 158.339844 218.414062 L 166.164062 224 L 166.164062 225.121094 L 162.8125 225.679688 L 153.308594 226.238281 L 148.839844 227.355469 L 146.605469 227.355469 L 146.046875 229.03125 L 142.132812 226.238281 L 136.546875 204.441406 Z M 135.988281 201.648438 " fill-opacity="1" fill-rule="nonzero"/><path fill="#33779c" d="M 161.691406 241.882812 L 164.488281 243.003906 L 168.398438 244.679688 L 167.28125 250.824219 L 167.28125 253.621094 L 163.929688 251.945312 L 165.046875 257.53125 L 166.164062 259.765625 L 167.28125 260.886719 L 163.371094 260.324219 L 158.898438 256.414062 L 157.222656 253.621094 L 157.222656 247.472656 L 160.574219 243.003906 Z M 161.691406 241.882812 " fill-opacity="1" fill-rule="nonzero"/></svg>